<svg width="500" height="345" viewBox="0 0 500 345" fill="none" xmlns="http://www.w3.org/2000/svg">
<g clip-path="url(#clip0_27_9)">
<path d="M303.15 169.892C293.733 170.581 283.169 171.04 271.456 172.876C246.881 227.517 211.512 288.127 179.818 288.127C161.675 288.127 151.799 276.878 152.947 257.593C153.866 239.915 168.105 215.579 196.584 197.442C224.833 179.534 248.489 171.958 268.011 168.744C276.508 150.607 283.858 132.699 288.91 117.776C302.92 75.3034 315.092 23.8767 315.781 12.6271C316.011 6.65792 315.552 3.90292 313.255 3.90292C308.662 3.90292 300.623 20.2033 263.188 85.1755C224.833 151.296 217.254 175.402 206 175.402C192.22 175.402 183.723 160.249 183.723 134.536C183.723 112.726 192.909 89.7672 198.192 75.3034C203.244 61.0692 210.823 47.983 213.809 41.0955C216.795 34.208 219.78 36.5038 217.484 41.7842C213.579 50.5084 207.838 63.1355 201.866 78.5176C195.895 94.3588 189.005 115.94 189.005 133.618C189.005 156.117 195.895 172.417 204.163 172.417C213.579 172.417 228.508 135.684 258.135 84.0276C286.843 33.5192 305.217 0 312.796 0C318.078 0 319.915 4.59167 319.456 13.5454C318.308 31.4529 312.107 66.3496 293.504 118.695C288.451 132.47 281.561 149.918 273.523 168.055C279.724 167.366 285.465 166.907 290.748 166.907C295.571 166.678 308.432 166.678 310.04 167.596C311.647 168.514 309.121 169.433 303.15 169.892ZM179.589 282.617C204.622 282.617 240.451 227.288 265.714 174.024C246.422 177.468 224.144 184.585 198.421 201.115C173.847 216.727 159.378 240.604 158.459 257.363C157.311 274.582 166.038 282.617 179.589 282.617Z" fill="url(#paint0_linear_27_9)"/>
<path d="M24.0434 314.575L14.1669 330.286V344.597H9.89774V330.307L0 314.574H4.80021L12.0217 326.485L19.2645 314.574H24.0434V314.575ZM55.9292 344.597L53.4229 337.59H39.9992L37.4929 344.597H33.0962L44.1623 314.575H49.2599L60.326 344.597H55.9292ZM41.3166 333.896H52.1064L46.7116 318.757L41.3166 333.896ZM89.0903 314.575V318.375H81.4865V344.597H77.3022V318.375H69.6772V314.575H89.0903ZM114.775 345C106.258 345 99.7586 339.161 99.7586 329.565C99.7586 320.01 106.258 314.172 114.775 314.172C120.85 314.172 125.884 317.186 128.199 322.346L124.291 323.896C122.549 320.223 119.002 318.163 114.776 318.163C108.744 318.163 103.965 322.325 103.965 329.564C103.965 336.847 108.744 341.008 114.776 341.008C119.002 341.008 122.549 338.949 124.291 335.276L128.199 336.847C125.884 341.985 120.85 345 114.775 345ZM160.574 314.575H164.8V344.597H160.574V331.433H145.812V344.597H141.543V314.575H145.812V327.675H160.574V314.575ZM217.933 314.575H222.393L211.349 344.597H206.931L195.929 314.575H200.368L209.162 339.417L217.933 314.575ZM254.598 344.597L252.092 337.59H238.668L236.162 344.597H231.765L242.831 314.575H247.929L258.995 344.597H254.598ZM239.985 333.896H250.775L245.38 318.757L239.985 333.896ZM284.701 345C276.184 345 269.684 339.161 269.684 329.565C269.684 320.01 276.183 314.172 284.701 314.172C290.775 314.172 295.809 317.186 298.125 322.346L294.217 323.896C292.475 320.223 288.928 318.163 284.701 318.163C278.669 318.163 273.89 322.325 273.89 329.564C273.89 336.847 278.669 341.008 284.701 341.008C288.928 341.008 292.475 338.949 294.217 335.276L298.125 336.847C295.81 341.985 290.776 345 284.701 345ZM330.903 344.597L328.396 337.59H314.972L312.466 344.597H308.07L319.136 314.575H324.233L335.299 344.597H330.903ZM316.29 333.896H327.08L321.685 318.757L316.29 333.896ZM364.064 314.575V318.375H356.46V344.597H352.276V318.375H344.65V314.575H364.064ZM376.813 344.597V314.575H381.04V344.597H376.813ZM410.166 345C401.649 345 395.149 339.14 395.149 329.565C395.149 320.01 401.648 314.172 410.166 314.172C418.641 314.172 425.161 320.01 425.161 329.565C425.161 339.14 418.641 345 410.166 345ZM410.166 341.03C416.177 341.03 420.934 336.868 420.934 329.564C420.934 322.324 416.177 318.163 410.166 318.163C404.134 318.163 399.355 322.324 399.355 329.564C399.355 336.868 404.134 341.03 410.166 341.03ZM459.491 314.575H463.696V344.597H459.13L443.433 320.774V344.597H439.249V314.575H443.773L459.49 338.29L459.491 314.575ZM489.274 345C483.009 345 478.421 342.006 477.401 336.911L481.713 335.891C482.393 339.395 485.43 341.412 489.423 341.412C492.63 341.412 495.71 340.095 495.646 336.486C495.604 332.919 491.738 331.942 487.639 330.817C482.987 329.543 478.336 328.078 478.336 322.558C478.336 316.974 482.945 314.171 488.403 314.171C493.692 314.171 498.45 316.401 499.575 321.56L495.476 322.6C494.732 319.267 491.95 317.781 488.594 317.781C485.578 317.781 482.583 319.097 482.583 322.515C482.583 325.615 485.939 326.528 489.741 327.547C494.52 328.842 500 330.329 500 336.359C500 342.431 494.903 345 489.274 345Z" fill="url(#paint1_linear_27_9)"/>
</g>
<defs>
<linearGradient id="paint0_linear_27_9" x1="152.857" y1="0" x2="319.524" y2="0" gradientUnits="userSpaceOnUse">
<stop stop-color="#00FF8F"/>
<stop offset="1" stop-color="#00A1FF"/>
</linearGradient>
<linearGradient id="paint1_linear_27_9" x1="0" y1="314.171" x2="500" y2="314.171" gradientUnits="userSpaceOnUse">
<stop stop-color="#00FF8F"/>
<stop offset="1" stop-color="#00A1FF"/>
</linearGradient>
<clipPath id="clip0_27_9">
<rect width="500" height="345" fill="white"/>
</clipPath>
</defs>
</svg>
